inDegrees=no
num_controls=7
num_derivatives=13
num_iterations=153
num_multipliers=7
num_parameters=0
num_slacks=7
num_states=26
objective=5.739270
objective_accelerations=0.505708
objective_balance=0.024753
objective_effort=0.520026
objective_height=4.593188
objective_ligament=0.095596
solver_duration=1658.281708
status=Solve_Succeeded
success=true
DataType=double
version=3
OpenSimVersion=4.4-2022-07-23-0e9fedc
endheader
time	/jointset/ground_pelvis/pelvis_tilt/value	/jointset/ground_pelvis/pelvis_tx/value	/jointset/ground_pelvis/pelvis_ty/value	/jointset/hip_l/hip_flexion_l/value	/jointset/hip_l/hip_adduction_l/value	/jointset/hip_l/hip_rotation_l/value	/jointset/back/lumbar_extension/value	/jointset/patellofemoral_l/patellar_flexion_l/value	/jointset/knee_l/knee_flexion_l/value	/jointset/knee_l/knee_adduction_l/value	/jointset/knee_l/knee_rotation_l/value	/jointset/ankle_l/ankle_angle_l/value	/jointset/subtalar_l/subtalar_angle_l/value	/jointset/ground_pelvis/pelvis_tilt/speed	/jointset/ground_pelvis/pelvis_tx/speed	/jointset/ground_pelvis/pelvis_ty/speed	/jointset/hip_l/hip_flexion_l/speed	/jointset/hip_l/hip_adduction_l/speed	/jointset/hip_l/hip_rotation_l/speed	/jointset/back/lumbar_extension/speed	/jointset/patellofemoral_l/patellar_flexion_l/speed	/jointset/knee_l/knee_flexion_l/speed	/jointset/knee_l/knee_adduction_l/speed	/jointset/knee_l/knee_rotation_l/speed	/jointset/ankle_l/ankle_angle_l/speed	/jointset/subtalar_l/subtalar_angle_l/speed	/forceset/tau_hip_flexion_l	/forceset/tau_hip_adduction_l	/forceset/tau_hip_rotation_l	/forceset/tau_knee_flexion_l	/forceset/tau_ankle_angle_l	/forceset/tau_subtalar_angle_l	/forceset/tau_lumbar_extension	lambda_cid13_p0	lambda_cid13_p1	lambda_cid13_p2	lambda_cid13_p3	lambda_cid13_p4	lambda_cid13_p5	lambda_cid14_p0	/jointset/ground_pelvis/pelvis_tilt/accel	/jointset/ground_pelvis/pelvis_tx/accel	/jointset/ground_pelvis/pelvis_ty/accel	/jointset/hip_l/hip_flexion_l/accel	/jointset/hip_l/hip_adduction_l/accel	/jointset/hip_l/hip_rotation_l/accel	/jointset/back/lumbar_extension/accel	/jointset/patellofemoral_l/patellar_flexion_l/accel	/jointset/knee_l/knee_flexion_l/accel	/jointset/knee_l/knee_adduction_l/accel	/jointset/knee_l/knee_rotation_l/accel	/jointset/ankle_l/ankle_angle_l/accel	/jointset/subtalar_l/subtalar_angle_l/accel	gamma_cid13_p0	gamma_cid13_p1	gamma_cid13_p2	gamma_cid13_p3	gamma_cid13_p4	gamma_cid13_p5	gamma_cid14_p0
1.5	-0.0329894832966097	-0.03793092964177568	0.8541452426585311	0.7099359207386966	-0.3173474092853507	-0.1556424950654687	-0.7977872764133987	0.7018272319937624	0.7018272319936772	-0.1073587675550461	-0.1745255588346209	0.07597113313161774	0.002174826808460215	0.4344037677373667	0.2934501208602465	0.4067143770399296	-2.069875140953593	0.08842579268592997	-0.5887132764417938	0.8365294728588553	-1.797877602749056	-1.797877602749045	-0.131696498337371	-3.800415207040505e-05	-0.262912968221125	0.01254093694487438	-0.2212197024204142	0.01226214829598408	-0.003939002882070302	-0.2043479341041894	0.1084281927941603	0.04727754299646053	0.2921158908735283	-7.625844676824425	-21.09339330777953	5.074229092271164	-10.87425194727248	-671.034082999712	-80.31308313912577	-17.93338001641214	0.06067773108837635	0.7347593633785153	-0.5657523089841875	-0.7856457857775706	0.4030963797969713	-0.2605925896154953	1.96888141585218	-0.8017188450599355	-0.8017188450599375	-0.2888510671045042	0.0393077382620157	-0.05017985970187593	0.4050784122474795	7.553484037439335e-08	1.248068471706606e-06	-1.287157649787017e-08	1.44428371601874e-07	2.130063917475201e-07	1.793953947232119e-07	1.564272612509132e-07
1.51	-0.02864281303798037	-0.03495995210579864	0.8581833087783827	0.6891999379710712	-0.3164436689011238	-0.1615438264692636	-0.7893248992424484	0.6838105823285544	0.6838105823284586	-0.1086904365429875	-0.1745260248183777	0.07333982201904367	0.002319849548543369	0.4348693174534312	0.3007147145152291	0.4008185657703863	-2.077059026076412	0.09231485566829781	-0.5914904508960808	0.8558293455380594	-1.805207379586594	-1.805207379586539	-0.1346388823043916	-5.407662051861182e-05	-0.2632902909344079	0.01647171537131733	-0.2131595088670727	0.01154040053276167	-0.003837029775599114	-0.2013740913210479	0.1077474182493601	0.04637928248669745	0.2846176769325429	-7.607280830631562	-20.75979562424062	5.081887651188445	-10.64555477534881	-666.5746438111423	-80.2012844259734	-18.53517339864203	0.0303426174615081	0.717745713864599	-0.6135031324004283	-0.6454087911473284	0.3804953230348005	-0.2767640902665887	1.893047824742714	-0.6618943846971322	-0.6618943846904504	-0.2969237525970342	-0.02190386941724169	-0.02262360809693898	0.3880644545808834	5.266288773940441e-08	1.319616998057287e-06	7.311903639637784e-08	1.71600960983385e-07	1.865277697644902e-07	1.856717070626896e-07	1.518138393766957e-07
1.52	-0.02429331747708146	-0.03191724136381081	0.8621600152662465	0.6683999865690872	-0.3155013010739529	-0.1674710264609917	-0.7806730218185506	0.6657279774386436	0.6657279774385584	-0.1100515277088115	-0.1745266193528001	0.07070651465314512	0.002504377452238636	0.4349688281933665	0.3077967620624054	0.394442450642386	-2.082668867823761	0.09615128127378844	-0.5938869940276201	0.874429523448811	-1.811068647687991	-1.811068647687891	-0.1375809339152591	-6.37142897257427e-05	-0.2633122188859086	0.02044196966728788	-0.2050993153137405	0.01081865276953577	-0.003735056669041555	-0.1984002485379147	0.107066643704558	0.04548102197692858	0.2771194629915503	-7.59306704872947	-20.42641301357392	5.090696078188509	-10.42809746537351	-662.1961850982441	-80.1159121511693	-19.11881555662604	-0.01253006413777298	0.6982501418174162	-0.6618130806755715	-0.4708371106838434	0.3925689044215609	-0.1844663250658752	1.828942462161477	-0.5080170978316937	-0.5080170978317239	-0.288784595873879	0.0405946981103727	0.02089909265475584	0.4129735861530987	3.431908955909449e-08	1.36697500041842e-06	1.386234226160808e-07	1.888577402677705e-07	1.694982754160983e-07	1.892160322022462e-07	1.465768496015458e-07
1.53	-0.01994470102462171	-0.02880471176400104	0.8660706123039235	0.6475519463627123	-0.3145207628487093	-0.1734204841919492	-0.7718387360132175	0.6475941896380142	0.6475941896379065	-0.1114417703004355	-0.1745273609802823	0.06807478179525721	0.002728894573154313	0.4346915403526309	0.3146692577610979	0.3876024301779298	-2.086665375009291	0.09994763954017906	-0.5959464351794631	0.8922976108026989	-1.815435261440535	-1.815435261440487	-0.1404589913000344	-8.717566460424554e-05	-0.262975548760908	0.02446847805215956	-0.1970444644001746	0.01009157049456652	-0.003688550637671065	-0.195366075017136	0.1061845733909189	0.04450451710210756	0.2695852973391741	-7.657147341346909	-20.04497847962577	5.091430692432551	-10.08374610711275	-657.9443537133859	-79.95461172519504	-19.6805807808329	-0.04477698358855961	0.6758040991023684	-0.7062437832124685	-0.322999768077847	0.3716386295305839	-0.2078471395304121	1.74623784948164	-0.3629633681438217	-0.3629633681514561	-0.285770113817291	-0.02419323753877209	0.04891088452117659	0.3982973336927795	2.078645548688096e-08	1.388630571040656e-06	1.8236119299408e-07	1.955789713239605e-07	1.625084791795091e-07	1.898576209418867e-07	1.406773189316552e-07
1.54	-0.01560074721849069	-0.02562464624416323	0.8699105796861795	0.626672152635351	-0.3135025671724445	-0.1793887691602894	-0.7628296701388525	0.6294243397290099	0.6294243397289097	-0.112860484226695	-0.1745284125579625	0.06544818762103709	0.002993838351726395	0.4340362989300484	0.3213039460680157	0.380316519558174	-2.089019572018424	0.1036827714778897	-0.597652441502788	0.9093855372557772	-1.818281069360204	-1.818281069360207	-0.1432752008463324	-0.0001257043295542361	-0.2622844821519684	0.02852730119857326	-0.1889896134866511	0.00936448821956617	-0.003642044606095026	-0.1923319014963857	0.1053025030772669	0.0435280122272468	0.2620511316867746	-7.726347401071068	-19.66303899456399	5.092531875682901	-9.744871780367232	-653.7823673543088	-79.81498048882804	-20.21695342195174	-0.08812078050749163	0.6506886634626767	-0.750991111735431	-0.142375075404387	0.3803236386855903	-0.1137793593620887	1.672910281999404	-0.2038559312566132	-0.2038559312566113	-0.2764150281784295	0.03758124009629599	0.0917783894427824	0.4194365384616281	2.089492528432808e-08	1.379474474141049e-06	1.557682242038308e-07	1.909029864320307e-07	1.67552755680029e-07	1.98119365732021e-07	1.410028666917668e-07
1.55	-0.01126525369732429	-0.02237947360133453	0.8736755372368844	0.6057770043023203	-0.3124474079901692	-0.1853719758999532	-0.7536537412148383	0.6112336114931469	0.6112336114930168	-0.1143073847648527	-0.1745296512582716	0.06283026598810545	0.003299440741244488	0.4329972985650496	0.3276851538422498	0.3726082151422447	-2.089732733614077	0.1073355586269914	-0.5989262453260009	0.9256578302426799	-1.819606825530104	-1.819606825530121	-0.1460967965469689	-0.0001220341876188738	-0.2612390826682365	0.03259612620489046	-0.1808403360295479	0.00847505611667047	-0.00365917466232493	-0.1895490322691309	0.1046901696477778	0.04248025377206943	0.2544698521525964	-7.726649071808456	-19.25890932087815	5.086316353032817	-9.422806236311661	-649.8436236249732	-79.66644113644669	-20.72437880071886	-0.1215628089701136	0.6250551771328307	-0.7907270289672584	0.005810155252661655	0.3555463583613144	-0.1246492433054253	1.583026211099333	-0.05830315091510042	-0.0583031509170539	-0.2835855589687066	-0.01827229255098341	0.1200704836739596	0.4008419727724452	3.672031910551374e-08	1.334817977705404e-06	4.814201245886525e-08	1.730954266433549e-07	1.864623768559127e-07	2.151608555368541e-07	1.485007874255761e-07
